<mxfile host="65bd71144e">
    <diagram id="bpbkTxAe3MsM5qXTKhsR" name="Page-1">
        <mxGraphModel dx="2318" dy="480" grid="1" gridSize="10" guides="1" tooltips="1" connect="1" arrows="1" fold="1" page="1" pageScale="1" pageWidth="1100" pageHeight="850" math="0" shadow="0">
            <root>
                <mxCell id="0"/>
                <mxCell id="1" parent="0"/>
                <mxCell id="154" value="Chain Of Responsibility Design Pattern" style="text;html=1;align=center;verticalAlign=middle;resizable=1;points=[];autosize=1;strokeColor=#C73500;fillColor=#fa6800;fontColor=#000000;fontSize=25;movable=1;rotatable=1;deletable=1;editable=1;connectable=1;" parent="1" vertex="1">
                    <mxGeometry x="-1070" y="40" width="460" height="40" as="geometry"/>
                </mxCell>
                <mxCell id="201" value="&lt;span style=&quot;font-size: 14px;&quot;&gt;Avoids coupling the sender of a request to its receiver by giving more than one object a chance to handle the request. This pattern chains the receiving objects and passes the request along the chain until an object handles it.&amp;nbsp;&lt;/span&gt;" style="shape=note2;boundedLbl=1;whiteSpace=wrap;html=1;size=25;verticalAlign=top;align=left;movable=0;resizable=0;rotatable=0;deletable=0;editable=0;connectable=0;" parent="1" vertex="1">
                    <mxGeometry x="-580" y="50" width="570" height="90" as="geometry"/>
                </mxCell>
                <mxCell id="362" value="&lt;&lt;Abstract&gt;&gt;&#10;Handler" style="swimlane;fontStyle=1;align=center;verticalAlign=top;childLayout=stackLayout;horizontal=1;startSize=40;horizontalStack=0;resizeParent=1;resizeParentMax=0;resizeLast=0;collapsible=1;marginBottom=0;movable=0;resizable=0;rotatable=0;deletable=0;editable=0;connectable=0;" parent="1" vertex="1">
                    <mxGeometry x="-720" y="200" width="200" height="120" as="geometry"/>
                </mxCell>
                <mxCell id="363" value="-successor:Handler" style="text;strokeColor=none;fillColor=none;align=left;verticalAlign=top;spacingLeft=4;spacingRight=4;overflow=hidden;rotatable=0;points=[[0,0.5],[1,0.5]];portConstraint=eastwest;movable=0;resizable=0;deletable=0;editable=0;connectable=0;" parent="362" vertex="1">
                    <mxGeometry y="40" width="200" height="26" as="geometry"/>
                </mxCell>
                <mxCell id="364" value="" style="line;strokeWidth=1;fillColor=none;align=left;verticalAlign=middle;spacingTop=-1;spacingLeft=3;spacingRight=3;rotatable=0;labelPosition=right;points=[];portConstraint=eastwest;strokeColor=inherit;movable=0;resizable=0;deletable=0;editable=0;connectable=0;" parent="362" vertex="1">
                    <mxGeometry y="66" width="200" height="8" as="geometry"/>
                </mxCell>
                <mxCell id="365" value="+Handle(request:string):void&#10;+SetSuccessor(successor:Handler):void" style="text;strokeColor=none;fillColor=none;align=left;verticalAlign=top;spacingLeft=4;spacingRight=4;overflow=hidden;rotatable=0;points=[[0,0.5],[1,0.5]];portConstraint=eastwest;movable=0;resizable=0;deletable=0;editable=0;connectable=0;" parent="362" vertex="1">
                    <mxGeometry y="74" width="200" height="46" as="geometry"/>
                </mxCell>
                <mxCell id="366" value="ConcreteHandler1" style="swimlane;fontStyle=1;align=center;verticalAlign=top;childLayout=stackLayout;horizontal=1;startSize=26;horizontalStack=0;resizeParent=1;resizeParentMax=0;resizeLast=0;collapsible=1;marginBottom=0;movable=0;resizable=0;rotatable=0;deletable=0;editable=0;connectable=0;" parent="1" vertex="1">
                    <mxGeometry x="-810" y="400" width="170" height="60" as="geometry"/>
                </mxCell>
                <mxCell id="368" value="" style="line;strokeWidth=1;fillColor=none;align=left;verticalAlign=middle;spacingTop=-1;spacingLeft=3;spacingRight=3;rotatable=0;labelPosition=right;points=[];portConstraint=eastwest;strokeColor=inherit;movable=0;resizable=0;deletable=0;editable=0;connectable=0;" parent="366" vertex="1">
                    <mxGeometry y="26" width="170" height="8" as="geometry"/>
                </mxCell>
                <mxCell id="369" value="+Handle(request:string):void" style="text;strokeColor=none;fillColor=none;align=left;verticalAlign=top;spacingLeft=4;spacingRight=4;overflow=hidden;rotatable=0;points=[[0,0.5],[1,0.5]];portConstraint=eastwest;movable=0;resizable=0;deletable=0;editable=0;connectable=0;" parent="366" vertex="1">
                    <mxGeometry y="34" width="170" height="26" as="geometry"/>
                </mxCell>
                <mxCell id="370" value="ConcreteHandler2" style="swimlane;fontStyle=1;align=center;verticalAlign=top;childLayout=stackLayout;horizontal=1;startSize=26;horizontalStack=0;resizeParent=1;resizeParentMax=0;resizeLast=0;collapsible=1;marginBottom=0;movable=0;resizable=0;rotatable=0;deletable=0;editable=0;connectable=0;" parent="1" vertex="1">
                    <mxGeometry x="-600" y="400" width="170" height="60" as="geometry"/>
                </mxCell>
                <mxCell id="371" value="" style="line;strokeWidth=1;fillColor=none;align=left;verticalAlign=middle;spacingTop=-1;spacingLeft=3;spacingRight=3;rotatable=0;labelPosition=right;points=[];portConstraint=eastwest;strokeColor=inherit;movable=0;resizable=0;deletable=0;editable=0;connectable=0;" parent="370" vertex="1">
                    <mxGeometry y="26" width="170" height="8" as="geometry"/>
                </mxCell>
                <mxCell id="372" value="+Handle(request:string):void" style="text;strokeColor=none;fillColor=none;align=left;verticalAlign=top;spacingLeft=4;spacingRight=4;overflow=hidden;rotatable=0;points=[[0,0.5],[1,0.5]];portConstraint=eastwest;movable=0;resizable=0;deletable=0;editable=0;connectable=0;" parent="370" vertex="1">
                    <mxGeometry y="34" width="170" height="26" as="geometry"/>
                </mxCell>
                <mxCell id="373" value="&amp;lt;&amp;lt;extend&amp;gt;&amp;gt;" style="html=1;verticalAlign=bottom;labelBackgroundColor=none;endArrow=open;endFill=0;dashed=1;entryX=0.206;entryY=1.049;entryDx=0;entryDy=0;entryPerimeter=0;exitX=0.774;exitY=0;exitDx=0;exitDy=0;exitPerimeter=0;movable=0;resizable=0;rotatable=0;deletable=0;editable=0;connectable=0;" parent="1" source="366" target="365" edge="1">
                    <mxGeometry width="160" relative="1" as="geometry">
                        <mxPoint x="-840" y="360" as="sourcePoint"/>
                        <mxPoint x="-680" y="360" as="targetPoint"/>
                    </mxGeometry>
                </mxCell>
                <mxCell id="374" value="&amp;lt;&amp;lt;extend&amp;gt;&amp;gt;" style="html=1;verticalAlign=bottom;labelBackgroundColor=none;endArrow=open;endFill=0;dashed=1;entryX=0.805;entryY=1.087;entryDx=0;entryDy=0;entryPerimeter=0;movable=0;resizable=0;rotatable=0;deletable=0;editable=0;connectable=0;" parent="1" target="365" edge="1">
                    <mxGeometry width="160" relative="1" as="geometry">
                        <mxPoint x="-559" y="400" as="sourcePoint"/>
                        <mxPoint x="-380" y="370" as="targetPoint"/>
                    </mxGeometry>
                </mxCell>
                <mxCell id="375" value="Client" style="html=1;movable=0;resizable=0;rotatable=0;deletable=0;editable=0;connectable=0;" parent="1" vertex="1">
                    <mxGeometry x="-1040" y="200" width="110" height="50" as="geometry"/>
                </mxCell>
                <mxCell id="376" value="Use" style="endArrow=open;endSize=12;dashed=1;html=1;entryX=0;entryY=0.205;entryDx=0;entryDy=0;entryPerimeter=0;movable=0;resizable=0;rotatable=0;deletable=0;editable=0;connectable=0;" parent="1" target="362" edge="1">
                    <mxGeometry width="160" relative="1" as="geometry">
                        <mxPoint x="-930" y="224.65999999999997" as="sourcePoint"/>
                        <mxPoint x="-770" y="224.65999999999997" as="targetPoint"/>
                    </mxGeometry>
                </mxCell>
                <mxCell id="398" value="" style="group;movable=0;resizable=0;rotatable=0;deletable=0;editable=0;connectable=0;" parent="1" vertex="1" connectable="0">
                    <mxGeometry x="-1050" y="610" width="800" height="230" as="geometry"/>
                </mxCell>
                <mxCell id="377" value="sender" style="whiteSpace=wrap;html=1;" parent="398" vertex="1">
                    <mxGeometry width="120" height="60" as="geometry"/>
                </mxCell>
                <mxCell id="378" value="reciever" style="whiteSpace=wrap;html=1;" parent="398" vertex="1">
                    <mxGeometry x="200" width="120" height="60" as="geometry"/>
                </mxCell>
                <mxCell id="379" style="edgeStyle=none;html=1;exitX=1;exitY=0.5;exitDx=0;exitDy=0;entryX=0;entryY=0.5;entryDx=0;entryDy=0;" parent="398" source="377" target="378" edge="1">
                    <mxGeometry relative="1" as="geometry"/>
                </mxCell>
                <mxCell id="381" value="sender" style="whiteSpace=wrap;html=1;" parent="398" vertex="1">
                    <mxGeometry y="120" width="120" height="60" as="geometry"/>
                </mxCell>
                <mxCell id="385" value="" style="rounded=0;whiteSpace=wrap;html=1;" parent="398" vertex="1">
                    <mxGeometry x="200" y="110" width="600" height="80" as="geometry"/>
                </mxCell>
                <mxCell id="390" style="edgeStyle=none;html=1;exitX=1;exitY=0.5;exitDx=0;exitDy=0;entryX=0;entryY=0.5;entryDx=0;entryDy=0;" parent="398" source="381" target="385" edge="1">
                    <mxGeometry relative="1" as="geometry"/>
                </mxCell>
                <mxCell id="392" style="edgeStyle=none;html=1;entryX=0.4;entryY=0.5;entryDx=0;entryDy=0;entryPerimeter=0;" parent="398" source="386" target="385" edge="1">
                    <mxGeometry relative="1" as="geometry"/>
                </mxCell>
                <mxCell id="386" value="reciever1" style="whiteSpace=wrap;html=1;" parent="398" vertex="1">
                    <mxGeometry x="220" y="120" width="120" height="60" as="geometry"/>
                </mxCell>
                <mxCell id="387" value="reciever2" style="whiteSpace=wrap;html=1;" parent="398" vertex="1">
                    <mxGeometry x="440" y="120" width="120" height="60" as="geometry"/>
                </mxCell>
                <mxCell id="388" value="reciever3" style="whiteSpace=wrap;html=1;" parent="398" vertex="1">
                    <mxGeometry x="640" y="120" width="120" height="60" as="geometry"/>
                </mxCell>
                <mxCell id="393" style="edgeStyle=none;html=1;entryX=0;entryY=0.5;entryDx=0;entryDy=0;" parent="398" source="387" target="388" edge="1">
                    <mxGeometry relative="1" as="geometry"/>
                </mxCell>
                <mxCell id="395" value="" style="endArrow=classic;html=1;exitX=0.5;exitY=1;exitDx=0;exitDy=0;dashed=1;" parent="398" source="386" edge="1">
                    <mxGeometry width="50" height="50" relative="1" as="geometry">
                        <mxPoint x="280" y="220" as="sourcePoint"/>
                        <mxPoint x="50" y="180" as="targetPoint"/>
                        <Array as="points">
                            <mxPoint x="280" y="210"/>
                            <mxPoint x="50" y="210"/>
                        </Array>
                    </mxGeometry>
                </mxCell>
                <mxCell id="396" value="" style="endArrow=classic;html=1;exitX=0.5;exitY=1;exitDx=0;exitDy=0;dashed=1;entryX=0.5;entryY=1;entryDx=0;entryDy=0;" parent="398" target="381" edge="1">
                    <mxGeometry width="50" height="50" relative="1" as="geometry">
                        <mxPoint x="509.9999999999998" y="179.99999999999977" as="sourcePoint"/>
                        <mxPoint x="280" y="179.99999999999977" as="targetPoint"/>
                        <Array as="points">
                            <mxPoint x="510" y="220"/>
                            <mxPoint x="60" y="220"/>
                        </Array>
                    </mxGeometry>
                </mxCell>
                <mxCell id="397" value="" style="endArrow=classic;html=1;exitX=0.5;exitY=1;exitDx=0;exitDy=0;dashed=1;entryX=0.75;entryY=1;entryDx=0;entryDy=0;" parent="398" target="381" edge="1">
                    <mxGeometry width="50" height="50" relative="1" as="geometry">
                        <mxPoint x="679.9999999999998" y="179.99999999999977" as="sourcePoint"/>
                        <mxPoint x="230" y="179.99999999999977" as="targetPoint"/>
                        <Array as="points">
                            <mxPoint x="680" y="230"/>
                            <mxPoint x="380" y="230"/>
                            <mxPoint x="90" y="230"/>
                        </Array>
                    </mxGeometry>
                </mxCell>
            </root>
        </mxGraphModel>
    </diagram>
</mxfile>